<svg xmlns="http://www.w3.org/2000/svg" viewBox="0 0 1200 630" role="img" aria-label="EliteFit computer vision pipeline illustration">
  <defs>
    <linearGradient id="bgE" x1="0" y1="0" x2="1" y2="1">
      <stop offset="0%" stop-color="#0b1720"/>
      <stop offset="100%" stop-color="#123126"/>
    </linearGradient>
    <linearGradient id="pose" x1="0" y1="0" x2="1" y2="1">
      <stop offset="0%" stop-color="#95ffd5"/>
      <stop offset="100%" stop-color="#6ad2ff"/>
    </linearGradient>
  </defs>

  <rect width="1200" height="630" fill="url(#bgE)"/>
  <circle cx="170" cy="120" r="170" fill="#1b4b3c" opacity="0.35"/>
  <circle cx="980" cy="500" r="210" fill="#163f4c" opacity="0.32"/>

  <text x="86" y="108" fill="#e8fff4" font-size="42" font-family="Inter, Arial, sans-serif" font-weight="700">EliteFit.AI</text>
  <text x="86" y="152" fill="#a9cfc1" font-size="24" font-family="Inter, Arial, sans-serif">Pose normalization and optical-flow robustness</text>

  <rect x="90" y="196" width="1020" height="340" rx="20" fill="#0f1f27" stroke="#2f5664" stroke-width="2"/>

  <rect x="130" y="236" width="430" height="260" rx="14" fill="#122733" stroke="#34576a" stroke-width="2"/>
  <rect x="640" y="236" width="430" height="260" rx="14" fill="#122733" stroke="#34576a" stroke-width="2"/>

  <g stroke="url(#pose)" stroke-width="5" stroke-linecap="round" fill="none">
    <circle cx="342" cy="280" r="22"/>
    <path d="M342 304 L342 374"/>
    <path d="M342 334 L298 372"/>
    <path d="M342 334 L388 372"/>
    <path d="M342 374 L310 438"/>
    <path d="M342 374 L376 438"/>
  </g>

  <g stroke="url(#pose)" stroke-width="5" stroke-linecap="round" fill="none" opacity="0.75">
    <circle cx="852" cy="274" r="22"/>
    <path d="M852 298 L852 368"/>
    <path d="M852 330 L806 364"/>
    <path d="M852 330 L898 364"/>
    <path d="M852 368 L820 434"/>
    <path d="M852 368 L886 434"/>
  </g>

  <path d="M542 366 C604 320, 606 320, 658 366" stroke="#74d8ff" stroke-width="4" fill="none" stroke-dasharray="8 8"/>
  <path d="M548 404 C614 358, 614 358, 652 404" stroke="#74d8ff" stroke-width="4" fill="none" stroke-dasharray="8 8" opacity="0.75"/>

  <rect x="760" y="454" width="282" height="30" rx="8" fill="#174052"/>
  <rect x="760" y="454" width="254" height="30" rx="8" fill="url(#pose)"/>
  <text x="770" y="476" fill="#e8fff4" font-size="16" font-family="Inter, Arial, sans-serif">Frame Robustness 0.98 F1</text>
</svg>
