<svg xmlns="http://www.w3.org/2000/svg" viewBox="0 0 900 1200" role="img" aria-label="Ghibli-inspired snowy portrait illustration of Utkarsh">
  <defs>
    <linearGradient id="sky" x1="0" y1="0" x2="0" y2="1">
      <stop offset="0%" stop-color="#dfe7f0"/>
      <stop offset="100%" stop-color="#c8d2dd"/>
    </linearGradient>
    <linearGradient id="coat" x1="0" y1="0" x2="1" y2="1">
      <stop offset="0%" stop-color="#1f2731"/>
      <stop offset="100%" stop-color="#141a21"/>
    </linearGradient>
    <filter id="softPaint" x="-20%" y="-20%" width="140%" height="140%">
      <feGaussianBlur stdDeviation="0.5"/>
    </filter>
  </defs>

  <rect width="900" height="1200" fill="url(#sky)"/>

  <g opacity="0.8">
    <path d="M0 710 Q180 610 320 700 V880 H0 Z" fill="#9da8b3"/>
    <path d="M900 730 Q720 610 560 710 V900 H900 Z" fill="#8f9aa6"/>
    <path d="M0 820 Q450 660 900 820 V1200 H0 Z" fill="#edf2f6"/>
    <path d="M200 1200 L430 760 L470 760 L700 1200 Z" fill="#f6f8fb"/>
  </g>

  <g opacity="0.55" fill="#6f7a84">
    <path d="M70 670 l-10 -130 l18 -6 l12 136 z"/>
    <path d="M93 678 l6 -110 l15 -8 l8 118 z"/>
    <path d="M770 676 l-8 -120 l15 -5 l10 126 z"/>
    <path d="M796 690 l4 -110 l12 -4 l7 114 z"/>
  </g>

  <g transform="translate(450 760)" filter="url(#softPaint)">
    <ellipse cx="0" cy="246" rx="135" ry="20" fill="#a0aab5" opacity="0.55"/>
    <path d="M-128 74 q128 80 256 0 v224 h-256 z" fill="url(#coat)"/>
    <path d="M-112 86 q42 -52 96 -52 q52 0 92 52 v196 h-188 z" fill="#111820"/>
    <path d="M-30 66 h58 l14 50 h-86 z" fill="#2b323b"/>

    <ellipse cx="0" cy="-8" rx="54" ry="62" fill="#d3a57e"/>
    <path d="M-58 -24 q8 -52 58 -62 q50 8 60 60 q-22 -14 -60 -12 q-36 0 -58 14 z" fill="#242a31"/>
    <rect x="-30" y="4" width="23" height="8" rx="4" fill="#596a81"/>
    <rect x="8" y="4" width="23" height="8" rx="4" fill="#596a81"/>
    <rect x="-7" y="7" width="14" height="2.5" rx="1.2" fill="#596a81"/>
    <circle cx="-19" cy="7.5" r="2.3" fill="#1a1f26"/>
    <circle cx="19" cy="7.5" r="2.3" fill="#1a1f26"/>
    <path d="M-18 29 q18 16 36 0" stroke="#7f4c39" stroke-width="3" fill="none" stroke-linecap="round"/>

    <path d="M-126 82 q-28 34 -24 88 q36 44 58 8 l-2 -82 z" fill="#121820"/>
    <path d="M126 82 q28 34 24 88 q-36 44 -58 8 l2 -82 z" fill="#121820"/>
    <path d="M-88 292 q18 40 44 8 v-62 h-44 z" fill="#171e26"/>
    <path d="M88 292 q-18 40 -44 8 v-62 h44 z" fill="#171e26"/>
  </g>

  <g fill="#ffffff" opacity="0.72">
    <circle cx="84" cy="118" r="2.4"/>
    <circle cx="132" cy="190" r="1.5"/>
    <circle cx="210" cy="280" r="2.1"/>
    <circle cx="320" cy="120" r="1.8"/>
    <circle cx="390" cy="228" r="1.3"/>
    <circle cx="486" cy="150" r="2.2"/>
    <circle cx="604" cy="244" r="1.7"/>
    <circle cx="702" cy="172" r="2.6"/>
    <circle cx="792" cy="292" r="1.4"/>
    <circle cx="852" cy="142" r="1.8"/>
    <circle cx="172" cy="430" r="1.7"/>
    <circle cx="278" cy="398" r="1.3"/>
    <circle cx="338" cy="470" r="2.3"/>
    <circle cx="562" cy="410" r="1.9"/>
    <circle cx="636" cy="472" r="1.6"/>
    <circle cx="760" cy="420" r="2.1"/>
    <circle cx="90" cy="590" r="2.2"/>
    <circle cx="236" cy="560" r="1.4"/>
    <circle cx="470" cy="546" r="1.6"/>
    <circle cx="694" cy="584" r="2.0"/>
    <circle cx="836" cy="530" r="1.7"/>
  </g>
</svg>
